REM DIRINDEX 1\2,1\3,1\4,1\5
REM DIRNAME cjc044,folder01,folder02,folder03,folder04
TITLE ""
FILE "1800_161.mp3" MP3
  TRACK 01 AUDIO
    TITLE "2:cjc044_5235"
    INDEX 01 00:00:00
  TRACK 02 AUDIO
    TITLE "0:"
    INDEX 01 00:01:07
  TRACK 03 AUDIO
    TITLE "3:cjc044_5236"
    INDEX 01 00:01:56
  TRACK 04 AUDIO
    TITLE "0:"
    INDEX 01 00:02:67
  TRACK 05 AUDIO
    TITLE "4:cjc044_5237"
    INDEX 01 00:03:37
  TRACK 06 AUDIO
    TITLE "0:"
    INDEX 01 00:04:60
  TRACK 07 AUDIO
    TITLE "2:cjc044_5238"
    INDEX 01 00:06:31
  TRACK 08 AUDIO
    TITLE "0:"
    INDEX 01 00:07:41
  TRACK 09 AUDIO
    TITLE "3:cjc044_5239"
    INDEX 01 00:08:15
  TRACK 10 AUDIO
    TITLE "0:"
    INDEX 01 00:09:18
  TRACK 11 AUDIO
    TITLE "4:cjc044_5240"
    INDEX 01 00:09:63
  TRACK 12 AUDIO
    TITLE "0:"
    INDEX 01 00:10:74
  TRACK 13 AUDIO
    TITLE "2:cjc044_5241"
    INDEX 01 00:12:46
  TRACK 14 AUDIO
    TITLE "0:"
    INDEX 01 00:13:63
  TRACK 15 AUDIO
    TITLE "3:cjc044_5242"
    INDEX 01 00:14:35
  TRACK 16 AUDIO
    TITLE "0:"
    INDEX 01 00:15:36
  TRACK 17 AUDIO
    TITLE "4:cjc044_5243"
    INDEX 01 00:16:10
  TRACK 18 AUDIO
    TITLE "0:"
    INDEX 01 00:17:25
  TRACK 19 AUDIO
    TITLE "2:cjc044_5244"
    INDEX 01 00:19:01
  TRACK 20 AUDIO
    TITLE "0:"
    INDEX 01 00:20:24
  TRACK 21 AUDIO
    TITLE "3:cjc044_5245"
    INDEX 01 00:21:00
  TRACK 22 AUDIO
    TITLE "0:"
    INDEX 01 00:22:05
  TRACK 23 AUDIO
    TITLE "4:cjc044_5246"
    INDEX 01 00:22:50
  TRACK 24 AUDIO
    TITLE "0:"
    INDEX 01 00:23:73
  TRACK 25 AUDIO
    TITLE "2:cjc044_5247"
    INDEX 01 00:25:48
  TRACK 26 AUDIO
    TITLE "0:"
    INDEX 01 00:26:60
  TRACK 27 AUDIO
    TITLE "3:cjc044_5248"
    INDEX 01 00:27:34
  TRACK 28 AUDIO
    TITLE "0:"
    INDEX 01 00:28:51
  TRACK 29 AUDIO
    TITLE "4:cjc044_5249"
    INDEX 01 00:29:25
  TRACK 30 AUDIO
    TITLE "0:"
    INDEX 01 00:30:38
  TRACK 31 AUDIO
    TITLE "2:cjc044_5250"
    INDEX 01 00:32:09
  TRACK 32 AUDIO
    TITLE "0:"
    INDEX 01 00:33:26
  TRACK 33 AUDIO
    TITLE "3:cjc044_5251"
    INDEX 01 00:33:73
  TRACK 34 AUDIO
    TITLE "0:"
    INDEX 01 00:34:49
  TRACK 35 AUDIO
    TITLE "4:cjc044_5252"
    INDEX 01 00:35:23
  TRACK 36 AUDIO
    TITLE "0:"
    INDEX 01 00:36:38
  TRACK 37 AUDIO
    TITLE "2:cjc044_5253"
    INDEX 01 00:38:10
  TRACK 38 AUDIO
    TITLE "0:"
    INDEX 01 00:39:31
  TRACK 39 AUDIO
    TITLE "3:cjc044_5254"
    INDEX 01 00:40:07
  TRACK 40 AUDIO
    TITLE "0:"
    INDEX 01 00:41:14
  TRACK 41 AUDIO
    TITLE "4:cjc044_5255"
    INDEX 01 00:41:63
  TRACK 42 AUDIO
    TITLE "0:"
    INDEX 01 00:43:09
  TRACK 43 AUDIO
    TITLE "2:cjc044_5256"
    INDEX 01 00:44:60
  TRACK 44 AUDIO
    TITLE "0:"
    INDEX 01 00:45:61
  TRACK 45 AUDIO
    TITLE "3:cjc044_5257"
    INDEX 01 00:46:35
  TRACK 46 AUDIO
    TITLE "0:"
    INDEX 01 00:47:38
  TRACK 47 AUDIO
    TITLE "4:cjc044_5258"
    INDEX 01 00:48:12
  TRACK 48 AUDIO
    TITLE "0:"
    INDEX 01 00:49:12
  TRACK 49 AUDIO
    TITLE "2:cjc044_5259"
    INDEX 01 00:50:62
  TRACK 50 AUDIO
    TITLE "0:"
    INDEX 01 00:52:30
  TRACK 51 AUDIO
    TITLE "3:cjc044_5260"
    INDEX 01 00:53:04
  TRACK 52 AUDIO
    TITLE "0:"
    INDEX 01 00:54:30
  TRACK 53 AUDIO
    TITLE "4:cjc044_5261"
    INDEX 01 00:55:03
  TRACK 54 AUDIO
    TITLE "0:"
    INDEX 01 00:56:47
  TRACK 55 AUDIO
    TITLE "2:cjc044_5262"
    INDEX 01 00:58:20
  TRACK 56 AUDIO
    TITLE "0:"
    INDEX 01 00:59:39
  TRACK 57 AUDIO
    TITLE "3:cjc044_5263"
    INDEX 01 01:00:12
  TRACK 58 AUDIO
    TITLE "0:"
    INDEX 01 01:01:01
  TRACK 59 AUDIO
    TITLE "4:cjc044_5264"
    INDEX 01 01:01:52
  TRACK 60 AUDIO
    TITLE "0:"
    INDEX 01 01:02:71
  TRACK 61 AUDIO
    TITLE "2:cjc044_5265"
    INDEX 01 01:04:45
  TRACK 62 AUDIO
    TITLE "0:"
    INDEX 01 01:05:73
  TRACK 63 AUDIO
    TITLE "3:cjc044_5266"
    INDEX 01 01:06:42
  TRACK 64 AUDIO
    TITLE "0:"
    INDEX 01 01:07:47
  TRACK 65 AUDIO
    TITLE "4:cjc044_5267"
    INDEX 01 01:08:17
  TRACK 66 AUDIO
    TITLE "0:"
    INDEX 01 01:09:44
  TRACK 67 AUDIO
    TITLE "2:cjc044_5268"
    INDEX 01 01:11:15
  TRACK 68 AUDIO
    TITLE "0:"
    INDEX 01 01:12:50
  TRACK 69 AUDIO
    TITLE "3:cjc044_5269"
    INDEX 01 01:13:18
  TRACK 70 AUDIO
    TITLE "0:"
    INDEX 01 01:14:53
  TRACK 71 AUDIO
    TITLE "4:cjc044_5270"
    INDEX 01 01:15:27
  TRACK 72 AUDIO
    TITLE "0:"
    INDEX 01 01:16:61
  TRACK 73 AUDIO
    TITLE "2:cjc044_5271"
    INDEX 01 01:18:33
  TRACK 74 AUDIO
    TITLE "0:"
    INDEX 01 01:19:38
  TRACK 75 AUDIO
    TITLE "3:cjc044_5272"
    INDEX 01 01:20:10
  TRACK 76 AUDIO
    TITLE "0:"
    INDEX 01 01:21:27
  TRACK 77 AUDIO
    TITLE "4:cjc044_5273"
    INDEX 01 01:22:01
  TRACK 78 AUDIO
    TITLE "0:"
    INDEX 01 01:23:05
  TRACK 79 AUDIO
    TITLE "2:cjc044_5274"
    INDEX 01 01:24:53
  TRACK 80 AUDIO
    TITLE "0:"
    INDEX 01 01:25:70
  TRACK 81 AUDIO
    TITLE "3:cjc044_5275"
    INDEX 01 01:26:38
  TRACK 82 AUDIO
    TITLE "0:"
    INDEX 01 01:27:30
  TRACK 83 AUDIO
    TITLE "4:cjc044_5276"
    INDEX 01 01:28:04
  TRACK 84 AUDIO
    TITLE "0:"
    INDEX 01 01:29:19
  TRACK 85 AUDIO
    TITLE "2:cjc044_5277"
    INDEX 01 01:30:66
  TRACK 86 AUDIO
    TITLE "0:"
    INDEX 01 01:32:19
  TRACK 87 AUDIO
    TITLE "3:cjc044_5278"
    INDEX 01 01:32:64
  TRACK 88 AUDIO
    TITLE "0:"
    INDEX 01 01:33:66
  TRACK 89 AUDIO
    TITLE "4:cjc044_5279"
    INDEX 01 01:34:38
  TRACK 90 AUDIO
    TITLE "0:"
    INDEX 01 01:35:67
  TRACK 91 AUDIO
    TITLE "2:cjc044_5280"
    INDEX 01 01:37:36
  TRACK 92 AUDIO
    TITLE "0:"
    INDEX 01 01:38:55
  TRACK 93 AUDIO
    TITLE "3:cjc044_5281"
    INDEX 01 01:39:25
  TRACK 94 AUDIO
    TITLE "0:"
    INDEX 01 01:40:29
  TRACK 95 AUDIO
    TITLE "4:cjc044_5282"
    INDEX 01 01:41:01
  TRACK 96 AUDIO
    TITLE "0:"
    INDEX 01 01:42:18
